<?xml version="1.0" encoding="UTF-8" standalone="no"?>
<!DOCTYPE svg PUBLIC "-//W3C//DTD SVG 1.1//EN" "http://www.w3.org/Graphics/SVG/1.1/DTD/svg11.dtd">
<svg xmlns="http://www.w3.org/2000/svg" version="1.1" viewBox="0 0 204 102">
<g stroke-width="2.00" fill="none" stroke-linecap="butt">
<path stroke="#d9c789" vector-effect="non-scaling-stroke" d="
  M 88.3217 2.9160
  A 0.27 0.27 0.0 0 0 88.0527 2.6451
  L 79.5727 2.6155
  A 0.27 0.27 0.0 0 0 79.3018 2.8845
  L 78.9783 95.5640
  A 0.27 0.27 0.0 0 0 79.2473 95.8349
  L 87.7273 95.8645
  A 0.27 0.27 0.0 0 0 87.9982 95.5955
  L 88.3217 2.9160"
/>
<path stroke="#d9c789" vector-effect="non-scaling-stroke" d="
  M 102.8212 3.1083
  A 0.55 0.55 0.0 0 0 102.2770 2.5526
  L 94.2174 2.4682
  A 0.55 0.55 0.0 0 0 93.6617 3.0124
  L 93.5188 16.6517
  A 0.55 0.55 0.0 0 0 94.0630 17.2074
  L 102.1226 17.2918
  A 0.55 0.55 0.0 0 0 102.6783 16.7476
  L 102.8212 3.1083"
/>
<path stroke="#d9c789" vector-effect="non-scaling-stroke" d="
  M 117.86 25.23
  A 0.32 0.32 0.0 0 1 117.56 24.92
  L 117.47 3.01
  A 0.32 0.32 0.0 0 0 117.15 2.69
  L 109.06 2.69
  A 0.32 0.32 0.0 0 0 108.74 3.01
  L 108.75 95.35
  A 0.32 0.32 0.0 0 0 109.06 95.67
  L 117.17 96.03
  A 0.32 0.32 0.0 0 0 117.50 95.71
  L 117.50 35.32
  A 0.32 0.32 0.0 0 1 117.80 35.00
  L 125.40 34.54
  A 0.32 0.32 0.0 0 0 125.71 34.22
  L 125.85 25.90
  A 0.32 0.32 0.0 0 0 125.55 25.58
  L 117.86 25.23"
/>
<path stroke="#d9c789" vector-effect="non-scaling-stroke" d="
  M 12.77 63.83
  L 75.25 63.50
  A 0.70 0.70 0.0 0 0 75.94 62.92
  C 78.37 48.12 67.85 32.61 54.80 26.63
  C 37.66 18.77 16.01 25.24 7.26 41.82
  C -6.93 68.70 11.17 100.54 42.68 97.90
  C 55.00 96.87 70.17 87.95 73.42 74.64
  A 0.53 0.53 0.0 0 0 72.90 73.98
  L 64.15 74.04
  A 0.90 0.87 -74.3 0 0 63.39 74.48
  C 56.90 85.77 44.96 91.84 32.16 88.53
  C 21.25 85.71 13.00 75.81 12.34 64.29
  A 0.43 0.43 0.0 0 1 12.77 63.83"
/>
<path stroke="#d9c789" vector-effect="non-scaling-stroke" d="
  M 132.53 63.81
  L 195.19 63.44
  A 0.83 0.83 0.0 0 0 196.02 62.62
  Q 196.06 38.15 176.90 28.01
  C 155.68 16.78 130.27 26.72 123.63 50.03
  C 110.93 94.62 172.38 118.43 193.03 75.71
  A 1.20 1.20 0.0 0 0 191.95 73.99
  L 184.07 74.00
  A 1.42 1.41 -73.2 0 0 182.89 74.64
  C 179.15 80.45 173.40 87.10 166.43 88.68
  C 149.70 92.49 132.99 82.20 132.08 64.29
  A 0.46 0.46 0.0 0 1 132.53 63.81"
/>
<path stroke="#d9c789" vector-effect="non-scaling-stroke" d="
  M 102.76 25.76
  A 0.26 0.26 0.0 0 0 102.50 25.50
  L 93.76 25.50
  A 0.26 0.26 0.0 0 0 93.50 25.76
  L 93.50 95.52
  A 0.26 0.26 0.0 0 0 93.76 95.78
  L 102.50 95.78
  A 0.26 0.26 0.0 0 0 102.76 95.52
  L 102.76 25.76"
/>
<path stroke="#d9c789" vector-effect="non-scaling-stroke" d="
  M 65.48 55.48
  C 64.44 40.79 50.15 31.00 36.27 32.37
  C 24.21 33.55 13.01 42.89 12.59 55.60
  A 0.39 0.39 0.0 0 0 12.98 56.00
  L 65.00 56.00
  A 0.49 0.48 88.3 0 0 65.48 55.48"
/>
<path stroke="#d9c789" vector-effect="non-scaling-stroke" d="
  M 175.31 37.69
  C 165.09 29.93 150.16 30.43 140.67 38.85
  C 136.63 42.43 131.97 49.61 132.52 55.53
  A 0.53 0.52 86.9 0 0 133.04 56.00
  L 184.98 56.00
  A 0.43 0.43 0.0 0 0 185.40 55.50
  Q 183.51 43.91 175.31 37.69"
/>
</g>
<path fill="#ffffff" d="
  M 0.00 0.00
  L 204.00 0.00
  L 204.00 102.00
  L 0.00 102.00
  L 0.00 0.00
  Z
  M 88.3217 2.9160
  A 0.27 0.27 0.0 0 0 88.0527 2.6451
  L 79.5727 2.6155
  A 0.27 0.27 0.0 0 0 79.3018 2.8845
  L 78.9783 95.5640
  A 0.27 0.27 0.0 0 0 79.2473 95.8349
  L 87.7273 95.8645
  A 0.27 0.27 0.0 0 0 87.9982 95.5955
  L 88.3217 2.9160
  Z
  M 102.8212 3.1083
  A 0.55 0.55 0.0 0 0 102.2770 2.5526
  L 94.2174 2.4682
  A 0.55 0.55 0.0 0 0 93.6617 3.0124
  L 93.5188 16.6517
  A 0.55 0.55 0.0 0 0 94.0630 17.2074
  L 102.1226 17.2918
  A 0.55 0.55 0.0 0 0 102.6783 16.7476
  L 102.8212 3.1083
  Z
  M 117.86 25.23
  A 0.32 0.32 0.0 0 1 117.56 24.92
  L 117.47 3.01
  A 0.32 0.32 0.0 0 0 117.15 2.69
  L 109.06 2.69
  A 0.32 0.32 0.0 0 0 108.74 3.01
  L 108.75 95.35
  A 0.32 0.32 0.0 0 0 109.06 95.67
  L 117.17 96.03
  A 0.32 0.32 0.0 0 0 117.50 95.71
  L 117.50 35.32
  A 0.32 0.32 0.0 0 1 117.80 35.00
  L 125.40 34.54
  A 0.32 0.32 0.0 0 0 125.71 34.22
  L 125.85 25.90
  A 0.32 0.32 0.0 0 0 125.55 25.58
  L 117.86 25.23
  Z
  M 12.77 63.83
  L 75.25 63.50
  A 0.70 0.70 0.0 0 0 75.94 62.92
  C 78.37 48.12 67.85 32.61 54.80 26.63
  C 37.66 18.77 16.01 25.24 7.26 41.82
  C -6.93 68.70 11.17 100.54 42.68 97.90
  C 55.00 96.87 70.17 87.95 73.42 74.64
  A 0.53 0.53 0.0 0 0 72.90 73.98
  L 64.15 74.04
  A 0.90 0.87 -74.3 0 0 63.39 74.48
  C 56.90 85.77 44.96 91.84 32.16 88.53
  C 21.25 85.71 13.00 75.81 12.34 64.29
  A 0.43 0.43 0.0 0 1 12.77 63.83
  Z
  M 132.53 63.81
  L 195.19 63.44
  A 0.83 0.83 0.0 0 0 196.02 62.62
  Q 196.06 38.15 176.90 28.01
  C 155.68 16.78 130.27 26.72 123.63 50.03
  C 110.93 94.62 172.38 118.43 193.03 75.71
  A 1.20 1.20 0.0 0 0 191.95 73.99
  L 184.07 74.00
  A 1.42 1.41 -73.2 0 0 182.89 74.64
  C 179.15 80.45 173.40 87.10 166.43 88.68
  C 149.70 92.49 132.99 82.20 132.08 64.29
  A 0.46 0.46 0.0 0 1 132.53 63.81
  Z
  M 102.76 25.76
  A 0.26 0.26 0.0 0 0 102.50 25.50
  L 93.76 25.50
  A 0.26 0.26 0.0 0 0 93.50 25.76
  L 93.50 95.52
  A 0.26 0.26 0.0 0 0 93.76 95.78
  L 102.50 95.78
  A 0.26 0.26 0.0 0 0 102.76 95.52
  L 102.76 25.76
  Z"
/>
<rect fill="#b38e13" x="-4.51" y="-46.61" transform="translate(83.65,49.24) rotate(0.2)" width="9.02" height="93.22" rx="0.27"/>
<rect fill="#b38e13" x="-4.58" y="-7.37" transform="translate(98.17,9.88) rotate(0.6)" width="9.16" height="14.74" rx="0.55"/>
<path fill="#b38e13" d="
  M 117.86 25.23
  L 125.55 25.58
  A 0.32 0.32 0.0 0 1 125.85 25.90
  L 125.71 34.22
  A 0.32 0.32 0.0 0 1 125.40 34.54
  L 117.80 35.00
  A 0.32 0.32 0.0 0 0 117.50 35.32
  L 117.50 95.71
  A 0.32 0.32 0.0 0 1 117.17 96.03
  L 109.06 95.67
  A 0.32 0.32 0.0 0 1 108.75 95.35
  L 108.74 3.01
  A 0.32 0.32 0.0 0 1 109.06 2.69
  L 117.15 2.69
  A 0.32 0.32 0.0 0 1 117.47 3.01
  L 117.56 24.92
  A 0.32 0.32 0.0 0 0 117.86 25.23
  Z"
/>
<path fill="#b38e13" d="
  M 12.34 64.29
  C 13.00 75.81 21.25 85.71 32.16 88.53
  C 44.96 91.84 56.90 85.77 63.39 74.48
  A 0.90 0.87 -74.3 0 1 64.15 74.04
  L 72.90 73.98
  A 0.53 0.53 0.0 0 1 73.42 74.64
  C 70.17 87.95 55.00 96.87 42.68 97.90
  C 11.17 100.54 -6.93 68.70 7.26 41.82
  C 16.01 25.24 37.66 18.77 54.80 26.63
  C 67.85 32.61 78.37 48.12 75.94 62.92
  A 0.70 0.70 0.0 0 1 75.25 63.50
  L 12.77 63.83
  A 0.43 0.43 0.0 0 0 12.34 64.29
  Z
  M 65.48 55.48
  C 64.44 40.79 50.15 31.00 36.27 32.37
  C 24.21 33.55 13.01 42.89 12.59 55.60
  A 0.39 0.39 0.0 0 0 12.98 56.00
  L 65.00 56.00
  A 0.49 0.48 88.3 0 0 65.48 55.48
  Z"
/>
<path fill="#b38e13" d="
  M 132.08 64.29
  C 132.99 82.20 149.70 92.49 166.43 88.68
  C 173.40 87.10 179.15 80.45 182.89 74.64
  A 1.42 1.41 -73.2 0 1 184.07 74.00
  L 191.95 73.99
  A 1.20 1.20 0.0 0 1 193.03 75.71
  C 172.38 118.43 110.93 94.62 123.63 50.03
  C 130.27 26.72 155.68 16.78 176.90 28.01
  Q 196.06 38.15 196.02 62.62
  A 0.83 0.83 0.0 0 1 195.19 63.44
  L 132.53 63.81
  A 0.46 0.46 0.0 0 0 132.08 64.29
  Z
  M 175.31 37.69
  C 165.09 29.93 150.16 30.43 140.67 38.85
  C 136.63 42.43 131.97 49.61 132.52 55.53
  A 0.53 0.52 86.9 0 0 133.04 56.00
  L 184.98 56.00
  A 0.43 0.43 0.0 0 0 185.40 55.50
  Q 183.51 43.91 175.31 37.69
  Z"
/>
<rect fill="#b38e13" x="93.50" y="25.50" width="9.26" height="70.28" rx="0.26"/>
<path fill="#ffffff" d="
  M 36.27 32.37
  C 50.15 31.00 64.44 40.79 65.48 55.48
  A 0.49 0.48 88.3 0 1 65.00 56.00
  L 12.98 56.00
  A 0.39 0.39 0.0 0 1 12.59 55.60
  C 13.01 42.89 24.21 33.55 36.27 32.37
  Z"
/>
<path fill="#ffffff" d="
  M 175.31 37.69
  Q 183.51 43.91 185.40 55.50
  A 0.43 0.43 0.0 0 1 184.98 56.00
  L 133.04 56.00
  A 0.53 0.52 86.9 0 1 132.52 55.53
  C 131.97 49.61 136.63 42.43 140.67 38.85
  C 150.16 30.43 165.09 29.93 175.31 37.69
  Z"
/>
</svg>
